<svg version="1.1" id="Layer_1" xmlns="http://www.w3.org/2000/svg" xmlns:xlink="http://www.w3.org/1999/xlink" x="0px" y="0px"
	 width="100%" viewBox="0 0 387 361" enable-background="new 0 0 387 361" xml:space="preserve">
<path fill="#FFFFFF" opacity="1.000000" stroke="none" 
	d="
M184.298920,361.752411 
	C176.645752,362.000000 169.291504,362.000000 161.468628,362.000000 
	C156.101334,359.963715 150.863678,361.100311 145.802658,360.388672 
	C118.825142,356.595306 92.777252,350.045135 69.766823,334.708252 
	C46.706287,319.338013 30.060638,298.439453 18.392889,273.466187 
	C10.138140,255.797974 4.789062,237.201080 3.044453,217.825882 
	C-0.910355,173.904709 8.208322,133.476624 38.160294,99.744102 
	C55.274288,80.469986 72.463402,61.131435 92.748932,44.969219 
	C118.683510,24.306189 147.864044,10.963548 180.746750,5.772890 
	C195.583145,3.430910 210.449661,1.776243 225.463379,2.058252 
	C237.966553,2.293104 250.396011,3.426338 262.436462,7.186819 
	C267.705170,8.832348 273.204468,9.293405 278.589966,10.331648 
	C315.464386,17.440487 343.005859,38.090961 362.503540,69.630692 
	C378.048065,94.775749 386.353912,122.290642 386.998230,151.976746 
	C387.023315,153.133301 386.876526,154.320023 387.751038,155.694992 
	C388.000000,160.356903 388.000000,164.713806 388.000000,169.535355 
	C386.632538,171.356079 387.040527,173.101349 387.001587,174.727798 
	C386.196960,208.324738 375.905548,238.754639 356.328491,266.018463 
	C350.701935,273.854248 345.829010,282.202820 339.629364,289.653809 
	C325.322754,306.848236 308.634674,321.148926 289.217773,332.292938 
	C260.902618,348.544067 230.317505,357.493164 197.990051,360.908569 
	C193.541885,361.378510 189.022644,360.405579 184.298920,361.752411 
z"/>
<path fill="#000000" opacity="1.000000" stroke="none" 
	d="
M388.000000,155.531342 
	C385.092621,156.527649 386.074219,154.260117 386.038269,153.039383 
	C385.243927,126.067131 378.276367,100.697990 365.436737,77.081345 
	C357.389984,62.280560 347.092041,49.191833 333.956177,38.247364 
	C320.349030,26.910288 305.269135,18.858456 288.406586,13.734388 
	C280.935272,11.464059 273.093170,11.543945 265.628632,9.310567 
	C249.725616,4.552407 233.360046,2.440030 216.833008,3.132812 
	C200.904678,3.800499 185.075363,5.967196 169.433548,9.231688 
	C152.650299,12.734397 136.849472,18.955801 121.833588,27.077656 
	C109.134499,33.946396 97.609474,42.554920 86.540619,51.852066 
	C71.126007,64.799377 58.274235,80.258156 44.256699,94.552307 
	C26.590839,112.566788 14.457361,134.254257 8.242802,158.784760 
	C5.578607,169.301025 4.374292,180.161850 3.797737,191.156799 
	C2.466361,216.546265 6.875463,240.732727 15.954159,264.315582 
	C25.157816,288.222992 39.624130,308.463196 58.838299,325.129578 
	C72.211510,336.729492 87.920410,344.585999 104.816048,349.974548 
	C118.847580,354.449585 133.173920,357.332916 147.792068,359.257904 
	C152.358032,359.859161 157.343735,358.460205 161.302826,361.621948 
	C109.021393,362.000000 57.042690,361.963196 5.064376,362.087219 
	C1.783324,362.095032 0.893234,361.624207 0.896999,358.067322 
	C1.021502,240.449203 1.022755,122.830894 0.895139,5.212772 
	C0.891121,1.509719 1.775838,0.907691 5.283920,0.910655 
	C131.398590,1.017195 257.513397,1.024673 383.628021,0.887923 
	C387.656921,0.883555 388.089935,2.107206 388.081482,5.624650 
	C387.961761,55.437107 388.000000,105.249939 388.000000,155.531342 
z"/>
<path fill="#000000" opacity="1.000000" stroke="none" 
	d="
M184.468658,362.000000 
	C183.466263,359.084473 185.746658,360.057098 186.959335,360.041840 
	C209.062424,359.763702 230.337357,355.024994 251.146439,347.985291 
	C274.690155,340.020508 296.183319,328.440002 315.328674,312.344391 
	C330.791718,299.344574 342.811432,283.688263 354.106537,267.155853 
	C364.240356,252.323288 372.936859,236.973343 378.100861,219.661621 
	C382.621307,204.507339 385.982330,189.223038 386.048004,173.328003 
	C386.052551,172.222748 385.109497,170.568649 387.559021,170.008957 
	C388.000000,232.597382 387.957428,295.194855 388.106995,357.791901 
	C388.115845,361.498596 387.218323,362.096771 383.717102,362.090302 
	C317.457336,361.967773 251.197296,362.000000 184.468658,362.000000 
z"/>
<path fill="#000000" opacity="1.000000" stroke="none" 
	d="
M153.878387,97.998970 
	C166.806595,102.173119 176.968491,108.995338 183.655807,120.967010 
	C193.294708,138.222610 191.525467,167.332672 168.028793,176.969040 
	C160.453003,180.076019 160.581299,186.877151 165.212265,190.745499 
	C168.150818,193.200165 171.910248,192.667938 174.649643,191.593307 
	C183.750839,188.023026 191.236664,181.992432 195.861465,173.253204 
	C198.455215,168.351974 201.715469,163.575195 202.141754,157.702225 
	C202.207565,156.795822 203.140488,155.998306 204.398758,156.071838 
	C208.058304,169.978043 214.977921,181.604385 227.680206,189.178833 
	C230.657562,190.954269 233.761749,191.873901 237.268585,192.081787 
	C241.414490,192.327515 244.013840,190.255371 244.834824,186.792114 
	C245.694794,183.164368 244.603851,179.812241 240.594803,177.898117 
	C233.795853,174.651932 227.452606,170.723694 223.437286,163.974075 
	C215.349869,150.379349 216.374191,131.202393 225.674774,117.661339 
	C234.315247,105.081383 246.582184,98.303932 260.891815,96.301132 
	C280.515656,93.554527 298.997650,97.365150 313.604187,112.187531 
	C321.774536,120.478600 325.743164,130.954437 328.031464,142.223236 
	C332.378082,163.628174 327.668671,183.628128 318.993256,203.063858 
	C311.229584,220.457047 300.438690,235.816284 288.298737,250.444534 
	C280.565033,259.763397 272.390472,268.604279 263.565338,276.788147 
	C246.392685,292.712860 227.968063,307.058594 207.801254,319.107666 
	C204.523544,321.066040 202.037750,320.926056 199.010101,319.030579 
	C184.302902,309.823090 170.102005,299.985565 156.928665,288.601410 
	C148.173050,281.034943 139.534393,273.383331 131.563568,265.016815 
	C111.179420,243.620804 93.606674,220.249359 83.676949,192.077438 
	C76.824829,172.637085 75.001549,152.673477 81.777908,132.714935 
	C88.566910,112.719200 102.793549,101.083298 123.360825,97.004463 
	C133.460861,95.001457 143.519928,94.807274 153.878387,97.998970 
z"/>
<path fill="#000000" opacity="1.000000" stroke="none" 
	d="
M212.239685,110.353302 
	C208.415741,115.526810 207.202332,121.428024 205.105545,126.934837 
	C204.692383,128.019913 204.665207,129.629105 203.529236,129.674942 
	C202.459900,129.718094 202.265411,128.229599 201.934509,127.073280 
	C196.435745,107.858086 184.647812,94.628494 165.935211,86.756485 
	C153.065430,81.342415 139.869217,79.690559 126.601791,81.228798 
	C97.836662,84.563835 73.342194,100.914452 66.096107,133.421661 
	C60.567181,158.225433 64.575768,182.024689 74.527634,205.276459 
	C81.967018,222.658020 92.280579,238.209061 103.725151,252.905380 
	C115.690849,268.270813 129.635712,281.959381 144.275070,294.921417 
	C158.661346,307.659363 174.061737,318.901398 190.393677,328.959930 
	C194.053391,331.213898 198.279343,332.473724 201.780899,335.741455 
	C185.584320,337.254791 169.757553,337.469788 153.731216,335.209991 
	C134.508179,332.499481 116.462318,326.869720 99.247528,318.060089 
	C83.053543,309.772858 70.011230,297.892151 58.442307,284.039795 
	C48.341965,271.945892 39.634167,258.955505 32.569981,244.945557 
	C26.707745,233.319366 23.643093,220.755661 23.020061,207.709778 
	C21.227581,170.176300 34.375973,137.371521 54.689297,106.682518 
	C64.593765,91.719025 77.549950,80.137642 92.266167,70.358871 
	C112.551079,56.879742 133.832047,45.387280 157.505600,38.826145 
	C171.040024,35.075069 184.717117,32.163857 198.585541,29.898157 
	C217.647095,26.784039 236.674774,24.090183 256.069092,23.841969 
	C268.853180,23.678356 279.112762,28.842976 288.101318,36.795074 
	C298.732056,46.200012 310.385925,54.226631 321.427368,63.064056 
	C332.642609,72.040596 341.705780,82.786240 348.759491,95.303009 
	C355.948700,108.060257 360.720154,121.816620 362.703644,136.116440 
	C364.505096,149.103821 364.621216,162.327805 363.212677,175.602524 
	C361.548126,191.289658 358.738586,206.681503 354.981232,221.942703 
	C351.241119,237.133896 345.857758,251.860794 337.712341,265.118011 
	C332.154266,274.164154 323.334534,280.915375 315.256531,287.881012 
	C302.253357,299.093597 287.432068,307.724335 272.087494,315.261505 
	C258.118835,322.122864 243.505203,327.521301 228.265823,330.978363 
	C221.373184,332.541962 214.431274,333.888367 207.370895,334.936188 
	C220.676392,327.597076 233.104630,319.089508 245.081375,309.942413 
	C251.820450,304.795532 258.327576,299.322235 264.696442,293.719971 
	C270.652374,288.480957 276.514465,283.096558 282.023499,277.395081 
	C301.647583,257.085602 318.958435,235.037354 330.916046,209.252029 
	C337.378021,195.317459 341.670624,180.804260 343.193390,165.295578 
	C344.946625,147.439667 342.148407,130.729218 333.928162,114.984436 
	C327.233002,102.160797 316.550140,93.706017 303.426422,87.619759 
	C289.714508,81.260719 275.272339,79.408516 260.870026,81.293610 
	C241.036270,83.889626 223.699768,92.235107 212.239685,110.353302 
z"/>
<path fill="#FFFFFF" opacity="1.000000" stroke="none" 
	d="
M231.229843,239.274414 
	C220.886520,247.275269 209.762924,253.405167 197.125427,254.716141 
	C182.142929,256.270386 167.808182,252.847305 154.958328,244.470444 
	C146.651291,239.055038 142.871262,231.388184 142.901077,221.476135 
	C142.913315,217.407623 145.180542,215.480606 148.296021,215.186844 
	C151.680206,214.867722 155.376495,216.369904 155.850281,220.277435 
	C156.461929,225.321686 157.648102,229.968460 161.717850,233.100983 
	C167.389587,237.466583 173.869110,240.075607 181.072998,241.041916 
	C200.154984,243.601517 215.057419,234.771210 228.906204,223.455261 
	C234.205048,219.125519 237.665207,213.052094 240.961670,207.073196 
	C243.467346,202.528519 246.591309,201.394714 251.336594,203.737762 
	C255.983688,206.032364 254.368408,209.760025 252.955688,212.887375 
	C248.166443,223.489441 240.720001,232.011856 231.229843,239.274414 
z"/>
<path fill="#FFFFFF" opacity="1.000000" stroke="none" 
	d="
M286.801025,170.559433 
	C284.132446,174.546158 280.918823,176.991119 276.941315,179.233994 
	C267.091888,184.787918 255.668030,176.738800 255.008743,164.299606 
	C254.617035,156.908813 255.721909,149.705627 258.002319,142.680923 
	C260.261810,135.720612 268.702087,129.124283 274.463654,130.038849 
	C283.073700,131.405548 288.753632,137.917343 290.159973,147.171707 
	C291.403778,155.356552 290.067017,162.816025 286.801025,170.559433 
z"/>
<path fill="#FFFFFF" opacity="1.000000" stroke="none" 
	d="
M129.990219,151.275970 
	C132.849152,160.471649 135.175781,169.212784 133.110382,178.701538 
	C131.538300,185.923904 126.353706,190.927231 117.721977,191.986298 
	C112.720009,192.600021 107.497688,187.835022 104.755959,181.541489 
	C102.411919,176.160797 100.478783,170.546814 100.266396,164.947205 
	C99.950684,156.623260 100.724525,148.061951 107.070564,141.440125 
	C111.647835,136.663925 116.782379,136.713394 121.641235,141.070312 
	C124.891701,143.984985 127.757034,147.131683 129.990219,151.275970 
z"/>
</svg>